Sora-Regular.ufo
<glyph name="plus" format="2">
  <advance width="590"/>
  <unicode hex="002B"/>
  <outline>
    <contour>
      <point x="254" y="106" type="line"/>
      <point x="336" y="106" type="line"/>
      <point x="336" y="582" type="line"/>
      <point x="254" y="582" type="line"/>
    </contour>
    <contour>
      <point x="66" y="306" type="line"/>
      <point x="524" y="306" type="line"/>
      <point x="524" y="382" type="line"/>
      <point x="66" y="382" type="line"/>
    </contour>
  </outline>
</glyph>
<glyph name="hyphen" format="2">
  <advance width="504"/>
  <unicode hex="002D"/>
  <outline>
    <contour>
      <point x="66" y="237" type="line"/>
      <point x="438" y="237" type="line"/>
      <point x="438" y="319" type="line"/>
      <point x="66" y="319" type="line"/>
    </contour>
  </outline>
</glyph>
<glyph name="one" format="2">
  <advance width="420"/>
  <unicode hex="0031"/>
  <outline>
    <contour>
      <point x="204" y="0" type="line"/>
      <point x="300" y="0" type="line"/>
      <point x="300" y="730" type="line"/>
      <point x="42" y="730" type="line"/>
      <point x="42" y="648" type="line"/>
      <point x="248" y="648" type="line"/>
      <point x="204" y="682" type="line"/>
    </contour>
  </outline>
</glyph>
<glyph name="four" format="2">
  <advance width="642"/>
  <unicode hex="0034"/>
  <outline>
    <contour>
      <point x="48" y="173" type="line"/>
      <point x="616" y="173" type="line"/>
      <point x="616" y="249" type="line"/>
      <point x="144" y="249" type="line"/>
      <point x="135" y="267" type="line"/>
      <point x="418" y="695" type="line"/>
      <point x="351" y="748" type="line"/>
      <point x="48" y="291" type="line"/>
    </contour>
    <contour>
      <point x="429" y="0" type="line"/>
      <point x="519" y="0" type="line"/>
      <point x="519" y="517" type="line"/>
      <point x="429" y="517" type="line"/>
    </contour>
  </outline>
</glyph>
<glyph name="six" format="2">
  <advance width="659"/>
  <unicode hex="0036"/>
  <outline>
    <contour>
      <point x="349" y="-20" type="curve" smooth="yes"/>
      <point x="519" y="-20"/>
      <point x="607" y="85"/>
      <point x="607" y="227" type="curve" smooth="yes"/>
      <point x="607" y="367"/>
      <point x="522" y="470"/>
      <point x="366" y="470" type="curve" smooth="yes"/>
      <point x="232" y="470"/>
      <point x="138" y="392"/>
      <point x="136" y="235" type="curve"/>
      <point x="160" y="324" type="line"/>
      <point x="160" y="369" type="line" smooth="yes"/>
      <point x="160" y="548"/>
      <point x="221" y="654"/>
      <point x="403" y="654" type="curve" smooth="yes"/>
      <point x="456" y="654"/>
      <point x="488" y="651"/>
      <point x="532" y="646" type="curve"/>
      <point x="532" y="728" type="line"/>
      <point x="489" y="733"/>
      <point x="459" y="736"/>
      <point x="407" y="736" type="curve" smooth="yes"/>
      <point x="190" y="736"/>
      <point x="72" y="606"/>
      <point x="72" y="376" type="curve" smooth="yes"/>
      <point x="72" y="328" type="line" smooth="yes"/>
      <point x="72" y="143"/>
      <point x="135" y="-20"/>
    </contour>
    <contour>
      <point x="349" y="64" type="curve" smooth="yes"/>
      <point x="231" y="64"/>
      <point x="178" y="138"/>
      <point x="178" y="226" type="curve" smooth="yes"/>
      <point x="178" y="332"/>
      <point x="254" y="390"/>
      <point x="356" y="390" type="curve" smooth="yes"/>
      <point x="460" y="390"/>
      <point x="515" y="323"/>
      <point x="515" y="227" type="curve" smooth="yes"/>
      <point x="515" y="131"/>
      <point x="459" y="64"/>
    </contour>
  </outline>
</glyph>
<glyph name="question" format="2">
  <advance width="552"/>
  <unicode hex="003F"/>
  <outline>
    <contour>
      <point x="203" y="218" type="line"/>
      <point x="299" y="218" type="line"/>
      <point x="301" y="370" type="line"/>
      <point x="265" y="324" type="line"/>
      <point x="421" y="324"/>
      <point x="504" y="416"/>
      <point x="504" y="529" type="curve" smooth="yes"/>
      <point x="504" y="541" type="line" smooth="yes"/>
      <point x="504" y="654"/>
      <point x="418" y="750"/>
      <point x="278" y="750" type="curve" smooth="yes"/>
      <point x="120" y="750"/>
      <point x="40" y="642"/>
      <point x="40" y="525" type="curve"/>
      <point x="132" y="525" type="line"/>
      <point x="132" y="606"/>
      <point x="188" y="666"/>
      <point x="278" y="666" type="curve" smooth="yes"/>
      <point x="356" y="666"/>
      <point x="412" y="617"/>
      <point x="412" y="535" type="curve" smooth="yes"/>
      <point x="412" y="461"/>
      <point x="366" y="404"/>
      <point x="272" y="404" type="curve" smooth="yes"/>
      <point x="203" y="404" type="line"/>
    </contour>
    <contour>
      <point x="193" y="0" type="line"/>
      <point x="309" y="0" type="line"/>
      <point x="309" y="122" type="line"/>
      <point x="193" y="122" type="line"/>
    </contour>
  </outline>
</glyph>
<glyph name="at" format="2">
  <advance width="1122"/>
  <unicode hex="0040"/>
  <outline>
    <contour>
      <point x="565" y="-243" type="curve" smooth="yes"/>
      <point x="607" y="-243"/>
      <point x="647" y="-238"/>
      <point x="685" y="-230" type="curve"/>
      <point x="685" y="-147" type="line"/>
      <point x="648" y="-156"/>
      <point x="607" y="-161"/>
      <point x="565" y="-161" type="curve" smooth="yes"/>
      <point x="320" y="-161"/>
      <point x="152" y="4"/>
      <point x="152" y="249" type="curve" smooth="yes"/>
      <point x="152" y="487"/>
      <point x="314" y="670"/>
      <point x="571" y="670" type="curve" smooth="yes"/>
      <point x="788" y="670"/>
      <point x="972" y="550"/>
      <point x="972" y="308" type="curve" smooth="yes"/>
      <point x="972" y="171"/>
      <point x="911" y="84"/>
      <point x="844" y="84" type="curve" smooth="yes"/>
      <point x="805" y="84"/>
      <point x="774" y="109"/>
      <point x="774" y="165" type="curve" smooth="yes"/>
      <point x="774" y="473" type="line"/>
      <point x="696" y="473" type="line"/>
      <point x="696" y="284" type="line"/>
      <point x="732" y="284" type="line"/>
      <point x="726" y="413"/>
      <point x="640" y="487"/>
      <point x="531" y="487" type="curve" smooth="yes"/>
      <point x="408" y="487"/>
      <point x="313" y="393"/>
      <point x="313" y="261" type="curve" smooth="yes"/>
      <point x="313" y="245" type="line" smooth="yes"/>
      <point x="313" y="113"/>
      <point x="404" y="14"/>
      <point x="527" y="14" type="curve" smooth="yes"/>
      <point x="628" y="14"/>
      <point x="717" y="82"/>
      <point x="723" y="225" type="curve"/>
      <point x="694" y="225" type="line"/>
      <point x="694" y="163" type="line" smooth="yes"/>
      <point x="694" y="70"/>
      <point x="752" y="6"/>
      <point x="846" y="6" type="curve" smooth="yes"/>
      <point x="971" y="6"/>
      <point x="1058" y="136"/>
      <point x="1058" y="312" type="curve" smooth="yes"/>
      <point x="1058" y="596"/>
      <point x="834" y="750"/>
      <point x="570" y="750" type="curve" smooth="yes"/>
      <point x="268" y="750"/>
      <point x="66" y="533"/>
      <point x="66" y="250" type="curve" smooth="yes"/>
      <point x="66" y="-44"/>
      <point x="276" y="-243"/>
    </contour>
    <contour>
      <point x="544" y="90" type="curve" smooth="yes"/>
      <point x="459" y="90"/>
      <point x="401" y="156"/>
      <point x="401" y="253" type="curve" smooth="yes"/>
      <point x="401" y="349"/>
      <point x="457" y="411"/>
      <point x="544" y="411" type="curve" smooth="yes"/>
      <point x="619" y="411"/>
      <point x="690" y="365"/>
      <point x="690" y="272" type="curve" smooth="yes"/>
      <point x="690" y="246" type="line" smooth="yes"/>
      <point x="690" y="146"/>
      <point x="622" y="90"/>
    </contour>
  </outline>
</glyph>
<glyph name="B" format="2">
  <advance width="680"/>
  <unicode hex="0042"/>
  <outline>
    <contour>
      <point x="184" y="-4" type="line"/>
      <point x="374" y="-4" type="line" smooth="yes"/>
      <point x="534" y="-4"/>
      <point x="612" y="68"/>
      <point x="612" y="196" type="curve" smooth="yes"/>
      <point x="612" y="210" type="line" smooth="yes"/>
      <point x="612" y="345"/>
      <point x="514" y="391"/>
      <point x="374" y="391" type="curve" smooth="yes"/>
      <point x="184" y="391" type="line"/>
      <point x="184" y="327" type="line"/>
      <point x="388" y="327" type="line" smooth="yes"/>
      <point x="468" y="327"/>
      <point x="512" y="281"/>
      <point x="512" y="205" type="curve" smooth="yes"/>
      <point x="512" y="130"/>
      <point x="467" y="82"/>
      <point x="388" y="82" type="curve" smooth="yes"/>
      <point x="184" y="82" type="line"/>
    </contour>
    <contour>
      <point x="106" y="-4" type="line"/>
      <point x="204" y="-4" type="line"/>
      <point x="204" y="734" type="line"/>
      <point x="106" y="734" type="line"/>
    </contour>
    <contour>
      <point x="184" y="345" type="line"/>
      <point x="344" y="345" type="line" smooth="yes"/>
      <point x="485" y="345"/>
      <point x="582" y="389"/>
      <point x="582" y="524" type="curve" smooth="yes"/>
      <point x="582" y="538" type="line" smooth="yes"/>
      <point x="582" y="665"/>
      <point x="504" y="734"/>
      <point x="344" y="734" type="curve" smooth="yes"/>
      <point x="184" y="734" type="line"/>
      <point x="184" y="648" type="line"/>
      <point x="361" y="648" type="line" smooth="yes"/>
      <point x="443" y="648"/>
      <point x="482" y="599"/>
      <point x="482" y="528" type="curve" smooth="yes"/>
      <point x="482" y="458"/>
      <point x="443" y="409"/>
      <point x="361" y="409" type="curve" smooth="yes"/>
      <point x="184" y="409" type="line"/>
    </contour>
  </outline>
</glyph>
<glyph name="D" format="2">
  <advance width="792"/>
  <unicode hex="0044"/>
  <anchor x="391" y="0" name="bottom"/>
  <anchor x="205" y="365" name="center"/>
  <anchor x="376" y="730" name="top"/>
  <outline>
    <contour>
      <point x="184" y="-4" type="line"/>
      <point x="356" y="-4" type="line" smooth="yes"/>
      <point x="619" y="-4"/>
      <point x="746" y="183"/>
      <point x="746" y="355" type="curve" smooth="yes"/>
      <point x="746" y="377" type="line" smooth="yes"/>
      <point x="746" y="553"/>
      <point x="619" y="734"/>
      <point x="356" y="734" type="curve" smooth="yes"/>
      <point x="184" y="734" type="line"/>
      <point x="184" y="644" type="line"/>
      <point x="366" y="644" type="line" smooth="yes"/>
      <point x="541" y="644"/>
      <point x="646" y="530"/>
      <point x="646" y="366" type="curve" smooth="yes"/>
      <point x="646" y="208"/>
      <point x="541" y="86"/>
      <point x="366" y="86" type="curve" smooth="yes"/>
      <point x="184" y="86" type="line"/>
    </contour>
    <contour>
      <point x="106" y="-4" type="line"/>
      <point x="204" y="-4" type="line"/>
      <point x="204" y="734" type="line"/>
      <point x="106" y="734" type="line"/>
    </contour>
  </outline>
</glyph>
<glyph name="J" format="2">
  <advance width="640"/>
  <unicode hex="004A"/>
  <anchor x="323" y="0" name="bottom"/>
  <anchor x="340" y="730" name="top"/>
  <outline>
    <contour>
      <point x="292" y="-18" type="curve" smooth="yes"/>
      <point x="436" y="-18"/>
      <point x="546" y="72"/>
      <point x="546" y="248" type="curve" smooth="yes"/>
      <point x="546" y="662" type="line"/>
      <point x="448" y="662" type="line"/>
      <point x="448" y="230" type="line" smooth="yes"/>
      <point x="448" y="130"/>
      <point x="383" y="72"/>
      <point x="292" y="72" type="curve" smooth="yes"/>
      <point x="201" y="72"/>
      <point x="136" y="130"/>
      <point x="136" y="230" type="curve" smooth="yes"/>
      <point x="136" y="273" type="line"/>
      <point x="38" y="273" type="line"/>
      <point x="38" y="248" type="line" smooth="yes"/>
      <point x="38" y="72"/>
      <point x="149" y="-18"/>
    </contour>
    <contour>
      <point x="134" y="642" type="line"/>
      <point x="546" y="642" type="line"/>
      <point x="546" y="730" type="line"/>
      <point x="134" y="730" type="line"/>
    </contour>
  </outline>
</glyph>
<glyph name="N" format="2">
  <advance width="849"/>
  <unicode hex="004E"/>
  <anchor x="412" y="0" name="bottom"/>
  <anchor x="443" y="730" name="top"/>
  <outline>
    <contour>
      <point x="106" y="0" type="line"/>
      <point x="198" y="0" type="line"/>
      <point x="198" y="660" type="line"/>
      <point x="178" y="642" type="line"/>
      <point x="210" y="642" type="line"/>
      <point x="581" y="0" type="line"/>
      <point x="743" y="0" type="line"/>
      <point x="743" y="730" type="line"/>
      <point x="649" y="730" type="line"/>
      <point x="649" y="70" type="line"/>
      <point x="669" y="88" type="line"/>
      <point x="637" y="88" type="line"/>
      <point x="266" y="730" type="line"/>
      <point x="106" y="730" type="line"/>
    </contour>
  </outline>
</glyph>
<glyph name="Q" format="2">
  <advance width="866"/>
  <unicode hex="0051"/>
  <guideline x="431" y="360" angle="90"/>
  <anchor x="433" y="0" name="bottom"/>
  <anchor x="433" y="365" name="center"/>
  <anchor x="563" y="10" name="ogonek"/>
  <anchor x="433" y="730" name="top"/>
  <outline>
    <contour>
      <point x="568" y="-211" type="curve" smooth="yes"/>
      <point x="675" y="-211" type="line"/>
      <point x="675" y="-124" type="line"/>
      <point x="551" y="-124" type="line" smooth="yes"/>
      <point x="508" y="-124"/>
      <point x="480" y="-97"/>
      <point x="480" y="-53" type="curve" smooth="yes"/>
      <point x="480" y="50" type="line"/>
      <point x="390" y="50" type="line"/>
      <point x="390" y="-38" type="line" smooth="yes"/>
      <point x="390" y="-171"/>
      <point x="459" y="-211"/>
    </contour>
    <component base="O"/>
  </outline>
</glyph>
<glyph name="R" format="2">
  <advance width="700"/>
  <unicode hex="0052"/>
  <anchor x="374" y="0" name="bottom"/>
  <anchor x="338" y="730" name="top"/>
  <outline>
    <contour>
      <point x="106" y="0" type="line"/>
      <point x="204" y="0" type="line"/>
      <point x="204" y="734" type="line"/>
      <point x="106" y="734" type="line"/>
    </contour>
    <contour>
      <point x="557" y="0" type="line"/>
      <point x="676" y="0" type="line"/>
      <point x="430" y="325" type="line"/>
      <point x="315" y="325" type="line"/>
    </contour>
    <contour>
      <point x="167" y="264" type="line"/>
      <point x="345" y="264" type="line" smooth="yes"/>
      <point x="504" y="264"/>
      <point x="611" y="333"/>
      <point x="611" y="491" type="curve" smooth="yes"/>
      <point x="611" y="507" type="line" smooth="yes"/>
      <point x="611" y="665"/>
      <point x="505" y="734"/>
      <point x="345" y="734" type="curve" smooth="yes"/>
      <point x="167" y="734" type="line"/>
      <point x="167" y="648" type="line"/>
      <point x="363" y="648" type="line" smooth="yes"/>
      <point x="454" y="648"/>
      <point x="511" y="585"/>
      <point x="511" y="499" type="curve" smooth="yes"/>
      <point x="511" y="413"/>
      <point x="454" y="351"/>
      <point x="363" y="351" type="curve" smooth="yes"/>
      <point x="167" y="351" type="line"/>
    </contour>
  </outline>
</glyph>
<glyph name="T" format="2">
  <advance width="594"/>
  <unicode hex="0054"/>
  <anchor x="297" y="0" name="bottom"/>
  <anchor x="297" y="365" name="center"/>
  <anchor x="297" y="730" name="top"/>
  <outline>
    <contour>
      <point x="248" y="0" type="line"/>
      <point x="346" y="0" type="line"/>
      <point x="346" y="662" type="line"/>
      <point x="248" y="662" type="line"/>
    </contour>
    <contour>
      <point x="26" y="642" type="line"/>
      <point x="568" y="642" type="line"/>
      <point x="568" y="730" type="line"/>
      <point x="26" y="730" type="line"/>
    </contour>
  </outline>
</glyph>
<glyph name="U" format="2">
  <advance width="789"/>
  <unicode hex="0055"/>
  <anchor x="395" y="0" name="bottom"/>
  <anchor x="520" y="10" name="ogonek"/>
  <anchor x="395" y="730" name="top"/>
  <outline>
    <contour>
      <point x="395" y="-18" type="curve" smooth="yes"/>
      <point x="594" y="-18"/>
      <point x="697" y="106"/>
      <point x="697" y="290" type="curve" smooth="yes"/>
      <point x="697" y="730" type="line"/>
      <point x="599" y="730" type="line"/>
      <point x="599" y="278" type="line" smooth="yes"/>
      <point x="599" y="154"/>
      <point x="526" y="72"/>
      <point x="395" y="72" type="curve" smooth="yes"/>
      <point x="263" y="72"/>
      <point x="190" y="155"/>
      <point x="190" y="278" type="curve" smooth="yes"/>
      <point x="190" y="730" type="line"/>
      <point x="92" y="730" type="line"/>
      <point x="92" y="290" type="line" smooth="yes"/>
      <point x="92" y="106"/>
      <point x="196" y="-18"/>
    </contour>
  </outline>
</glyph>
<glyph name="X" format="2">
  <advance width="696"/>
  <unicode hex="0058"/>
  <outline>
    <contour>
      <point x="16" y="0" type="line"/>
      <point x="122" y="0" type="line"/>
      <point x="333" y="307" type="line"/>
      <point x="349" y="307" type="line"/>
      <point x="567" y="0" type="line"/>
      <point x="678" y="0" type="line"/>
      <point x="402" y="386" type="line"/>
      <point x="403" y="368" type="line"/>
      <point x="658" y="730" type="line"/>
      <point x="552" y="730" type="line"/>
      <point x="358" y="450" type="line"/>
      <point x="342" y="450" type="line"/>
      <point x="151" y="730" type="line"/>
      <point x="40" y="730" type="line"/>
      <point x="288" y="372" type="line"/>
      <point x="288" y="390" type="line"/>
    </contour>
  </outline>
</glyph>
<glyph name="t" format="2">
  <advance width="426"/>
  <unicode hex="0074"/>
  <anchor x="239" y="0" name="bottom"/>
  <anchor x="198" y="290" name="center"/>
  <anchor x="152" y="696" name="top"/>
  <anchor x="198" y="576" name="topright"/>
  <outline>
    <contour>
      <point x="300" y="-6" type="curve" smooth="yes"/>
      <point x="382" y="-6" type="line"/>
      <point x="382" y="80" type="line"/>
      <point x="288" y="80" type="line" smooth="yes"/>
      <point x="231" y="80"/>
      <point x="198" y="113"/>
      <point x="198" y="170" type="curve" smooth="yes"/>
      <point x="198" y="696" type="line"/>
      <point x="106" y="696" type="line"/>
      <point x="106" y="182" type="line" smooth="yes"/>
      <point x="106" y="39"/>
      <point x="181" y="-6"/>
    </contour>
    <contour>
      <point x="14" y="462" type="line"/>
      <point x="382" y="462" type="line"/>
      <point x="382" y="534" type="line"/>
      <point x="14" y="534" type="line"/>
    </contour>
  </outline>
</glyph>
<glyph name="braceleft" format="2">
  <advance width="376"/>
  <unicode hex="007B"/>
  <guideline x="10" y="297" angle="0"/>
  <guideline y="-182"/>
  <outline>
    <contour>
      <point x="308" y="-182" type="curve" smooth="yes"/>
      <point x="330" y="-182" type="line"/>
      <point x="330" y="-106" type="line"/>
      <point x="308" y="-106" type="line" smooth="yes"/>
      <point x="249" y="-106"/>
      <point x="216" y="-69"/>
      <point x="216" y="2" type="curve" smooth="yes"/>
      <point x="216" y="180" type="line" smooth="yes"/>
      <point x="216" y="250"/>
      <point x="183" y="287"/>
      <point x="122" y="295" type="curve"/>
      <point x="122" y="303" type="line"/>
      <point x="183" y="311"/>
      <point x="216" y="348"/>
      <point x="216" y="418" type="curve" smooth="yes"/>
      <point x="216" y="592" type="line" smooth="yes"/>
      <point x="216" y="663"/>
      <point x="249" y="700"/>
      <point x="308" y="700" type="curve" smooth="yes"/>
      <point x="330" y="700" type="line"/>
      <point x="330" y="776" type="line"/>
      <point x="308" y="776" type="line" smooth="yes"/>
      <point x="198" y="776"/>
      <point x="124" y="708"/>
      <point x="124" y="588" type="curve" smooth="yes"/>
      <point x="124" y="408" type="line" smooth="yes"/>
      <point x="124" y="367"/>
      <point x="96" y="344"/>
      <point x="56" y="344" type="curve"/>
      <point x="56" y="254" type="line"/>
      <point x="96" y="254"/>
      <point x="124" y="231"/>
      <point x="124" y="190" type="curve" smooth="yes"/>
      <point x="124" y="6" type="line" smooth="yes"/>
      <point x="124" y="-114"/>
      <point x="198" y="-182"/>
    </contour>
  </outline>
</glyph>
<glyph name="multiply" format="2">
  <advance width="590"/>
  <unicode hex="00D7"/>
  <outline>
    <contour>
      <point x="465" y="118" type="line"/>
      <point x="68" y="514" type="line"/>
      <point x="125" y="571" type="line"/>
      <point x="522" y="175" type="line"/>
    </contour>
    <contour>
      <point x="121" y="118" type="line"/>
      <point x="68" y="171" type="line"/>
      <point x="469" y="571" type="line"/>
      <point x="522" y="518" type="line"/>
    </contour>
  </outline>
</glyph>
<glyph name="Oslash" format="2">
  <advance width="866"/>
  <unicode hex="00D8"/>
  <anchor x="433" y="0" name="bottom"/>
  <anchor x="433" y="365" name="center"/>
  <anchor x="563" y="10" name="ogonek"/>
  <anchor x="433" y="730" name="top"/>
  <outline>
    <contour>
      <point x="98" y="-52" type="line"/>
      <point x="194" y="-52" type="line"/>
      <point x="767" y="772" type="line"/>
      <point x="671" y="772" type="line"/>
    </contour>
    <component base="O"/>
  </outline>
</glyph>
<glyph name="eth" format="2">
  <advance width="648"/>
  <unicode hex="00F0"/>
  <guideline x="512" y="364" angle="180"/>
  <outline>
    <contour>
      <point x="325" y="-20" type="curve" smooth="yes"/>
      <point x="520" y="-20"/>
      <point x="594" y="117"/>
      <point x="594" y="296" type="curve" smooth="yes"/>
      <point x="594" y="322" type="line" smooth="yes"/>
      <point x="594" y="606"/>
      <point x="511" y="734"/>
      <point x="298" y="734" type="curve" smooth="yes"/>
      <point x="256" y="734"/>
      <point x="223" y="731"/>
      <point x="187" y="726" type="curve"/>
      <point x="187" y="650" type="line"/>
      <point x="223" y="655"/>
      <point x="258" y="658"/>
      <point x="298" y="658" type="curve" smooth="yes"/>
      <point x="363" y="658"/>
      <point x="401" y="645"/>
      <point x="432" y="623" type="curve" smooth="yes"/>
      <point x="491" y="581"/>
      <point x="508" y="495"/>
      <point x="510" y="355" type="curve"/>
      <point x="520" y="355" type="line"/>
      <point x="510" y="447"/>
      <point x="438" y="516"/>
      <point x="313" y="516" type="curve" smooth="yes"/>
      <point x="140" y="516"/>
      <point x="52" y="392"/>
      <point x="52" y="260" type="curve" smooth="yes"/>
      <point x="52" y="240" type="line" smooth="yes"/>
      <point x="52" y="114"/>
      <point x="130" y="-20"/>
    </contour>
    <contour>
      <point x="325" y="66" type="curve" smooth="yes"/>
      <point x="207" y="66"/>
      <point x="148" y="140"/>
      <point x="148" y="250" type="curve" smooth="yes"/>
      <point x="148" y="362"/>
      <point x="208" y="434"/>
      <point x="323" y="434" type="curve" smooth="yes"/>
      <point x="438" y="434"/>
      <point x="502" y="362"/>
      <point x="502" y="250" type="curve" smooth="yes"/>
      <point x="502" y="140"/>
      <point x="443" y="66"/>
    </contour>
    <contour>
      <point x="361" y="534" type="line"/>
      <point x="591" y="726" type="line"/>
      <point x="557" y="768" type="line"/>
      <point x="327" y="576" type="line"/>
    </contour>
  </outline>
</glyph>
<glyph name="idotless" format="2">
  <advance width="308"/>
  <unicode hex="0131"/>
  <anchor x="166" y="0" name="bottom"/>
  <anchor x="214" y="10" name="ogonek"/>
  <anchor x="134" y="534" name="top"/>
  <outline>
    <contour>
      <point x="118" y="0" type="line"/>
      <point x="214" y="0" type="line"/>
      <point x="214" y="534" type="line"/>
      <point x="118" y="534" type="line"/>
    </contour>
    <contour>
      <point x="36" y="458" type="line"/>
      <point x="214" y="458" type="line"/>
      <point x="214" y="534" type="line"/>
      <point x="36" y="534" type="line"/>
    </contour>
  </outline>
</glyph>
<glyph name="Eng" format="2">
  <advance width="849"/>
  <unicode hex="014A"/>
  <outline>
    <contour>
      <point x="430" y="-224" type="line"/>
      <point x="527" y="-224" type="line" smooth="yes"/>
      <point x="670" y="-224"/>
      <point x="743" y="-151"/>
      <point x="743" y="-6" type="curve" smooth="yes"/>
      <point x="743" y="730" type="line"/>
      <point x="649" y="730" type="line"/>
      <point x="649" y="70" type="line"/>
      <point x="669" y="88" type="line"/>
      <point x="637" y="88" type="line"/>
      <point x="266" y="730" type="line"/>
      <point x="106" y="730" type="line"/>
      <point x="106" y="0" type="line"/>
      <point x="198" y="0" type="line"/>
      <point x="198" y="660" type="line"/>
      <point x="178" y="642" type="line"/>
      <point x="210" y="642" type="line"/>
      <point x="576" y="9" type="line"/>
      <point x="686" y="9" type="line"/>
      <point x="649" y="34" type="line"/>
      <point x="649" y="-21" type="line" smooth="yes"/>
      <point x="649" y="-96"/>
      <point x="615" y="-138"/>
      <point x="541" y="-138" type="curve" smooth="yes"/>
      <point x="430" y="-138" type="line"/>
    </contour>
  </outline>
</glyph>
<glyph name="jdotless" format="2">
  <advance width="317"/>
  <unicode hex="0237"/>
  <anchor x="160" y="-300" name="bottom"/>
  <anchor x="140" y="534" name="top"/>
  <outline>
    <contour>
      <point x="-2" y="-204" type="line"/>
      <point x="40" y="-204" type="line" smooth="yes"/>
      <point x="174" y="-204"/>
      <point x="225" y="-159"/>
      <point x="225" y="-25" type="curve" smooth="yes"/>
      <point x="225" y="534" type="line"/>
      <point x="133" y="534" type="line"/>
      <point x="133" y="-39" type="line" smooth="yes"/>
      <point x="133" y="-89"/>
      <point x="104" y="-118"/>
      <point x="54" y="-118" type="curve" smooth="yes"/>
      <point x="-2" y="-118" type="line"/>
    </contour>
    <contour>
      <point x="49" y="458" type="line"/>
      <point x="225" y="458" type="line"/>
      <point x="225" y="534" type="line"/>
      <point x="49" y="534" type="line"/>
    </contour>
  </outline>
</glyph>
<glyph name="brevecomb" format="2">
  <unicode hex="0306"/>
  <anchor x="153" y="534" name="_top"/>
  <anchor x="154" y="807" name="top"/>
  <outline>
    <contour>
      <point x="154" y="606" type="curve" smooth="yes"/>
      <point x="254" y="606"/>
      <point x="302" y="680"/>
      <point x="306" y="810" type="curve"/>
      <point x="244" y="810" type="line"/>
      <point x="239" y="720"/>
      <point x="209" y="670"/>
      <point x="154" y="670" type="curve" smooth="yes"/>
      <point x="99" y="670"/>
      <point x="71" y="720"/>
      <point x="66" y="810" type="curve"/>
      <point x="0" y="810" type="line"/>
      <point x="4" y="680"/>
      <point x="54" y="606"/>
    </contour>
  </outline>
</glyph>
<glyph name="dotaccentcomb" format="2">
  <unicode hex="0307"/>
  <anchor x="62" y="534" name="_top"/>
  <anchor x="62" y="810" name="top"/>
  <outline>
    <contour>
      <point x="62" y="644" type="curve" smooth="yes"/>
      <point x="104" y="644"/>
      <point x="124" y="669"/>
      <point x="124" y="703" type="curve" smooth="yes"/>
      <point x="124" y="737"/>
      <point x="104" y="762"/>
      <point x="62" y="762" type="curve" smooth="yes"/>
      <point x="20" y="762"/>
      <point x="0" y="737"/>
      <point x="0" y="703" type="curve" smooth="yes"/>
      <point x="0" y="669"/>
      <point x="20" y="644"/>
    </contour>
  </outline>
</glyph>
<glyph name="commaturnedabovecomb" format="2">
  <unicode hex="0312"/>
  <anchor x="64" y="534" name="_top"/>
  <anchor x="64" y="807" name="top"/>
  <outline>
    <contour>
      <point x="72" y="602" type="curve" smooth="yes"/>
      <point x="102" y="602"/>
      <point x="128" y="618"/>
      <point x="128" y="656" type="curve" smooth="yes"/>
      <point x="128" y="692"/>
      <point x="104" y="707"/>
      <point x="78" y="707" type="curve" smooth="yes"/>
      <point x="56" y="707"/>
      <point x="40" y="695"/>
      <point x="33" y="682" type="curve"/>
      <point x="53" y="682" type="line"/>
      <point x="52" y="714" type="line" smooth="yes"/>
      <point x="51" y="752"/>
      <point x="73" y="782"/>
      <point x="121" y="782" type="curve" smooth="yes"/>
      <point x="130" y="782" type="line"/>
      <point x="130" y="828" type="line"/>
      <point x="123" y="828" type="line" smooth="yes"/>
      <point x="43" y="828"/>
      <point x="0" y="787"/>
      <point x="0" y="708" type="curve" smooth="yes"/>
      <point x="0" y="702" type="line" smooth="yes"/>
      <point x="0" y="635"/>
      <point x="30" y="602"/>
    </contour>
  </outline>
</glyph>
<glyph name="strokeshortcomb" format="2">
  <unicode hex="0335"/>
  <anchor x="150" y="267" name="_center"/>
  <outline>
    <contour>
      <point x="-24" y="235" type="line"/>
      <point x="324" y="235" type="line"/>
      <point x="324" y="299" type="line"/>
      <point x="-24" y="299" type="line"/>
    </contour>
  </outline>
</glyph>
<glyph name="bullet" format="2">
  <advance width="432"/>
  <unicode hex="2022"/>
  <outline>
    <contour>
      <point x="96" y="162" type="line"/>
      <point x="336" y="162" type="line"/>
      <point x="336" y="414" type="line"/>
      <point x="96" y="414" type="line"/>
    </contour>
  </outline>
</glyph>
<glyph name="euro" format="2">
  <advance width="700"/>
  <unicode hex="20AC"/>
  <outline>
    <contour>
      <point x="405" y="-14" type="curve" smooth="yes"/>
      <point x="577" y="-14"/>
      <point x="656" y="74"/>
      <point x="662" y="204" type="curve"/>
      <point x="576" y="204" type="line"/>
      <point x="571" y="120"/>
      <point x="518" y="68"/>
      <point x="405" y="68" type="curve" smooth="yes"/>
      <point x="269" y="68"/>
      <point x="192" y="153"/>
      <point x="192" y="365" type="curve" smooth="yes"/>
      <point x="192" y="577"/>
      <point x="264" y="662"/>
      <point x="398" y="662" type="curve" smooth="yes"/>
      <point x="507" y="662"/>
      <point x="564" y="610"/>
      <point x="570" y="526" type="curve"/>
      <point x="656" y="526" type="line"/>
      <point x="650" y="654"/>
      <point x="570" y="744"/>
      <point x="398" y="744" type="curve" smooth="yes"/>
      <point x="206" y="744"/>
      <point x="106" y="619"/>
      <point x="106" y="372" type="curve" smooth="yes"/>
      <point x="106" y="358" type="line" smooth="yes"/>
      <point x="106" y="111"/>
      <point x="211" y="-14"/>
    </contour>
    <contour>
      <point x="18" y="247" type="line"/>
      <point x="462" y="247" type="line"/>
      <point x="462" y="313" type="line"/>
      <point x="18" y="313" type="line"/>
    </contour>
    <contour>
      <point x="36" y="399" type="line"/>
      <point x="480" y="399" type="line"/>
      <point x="480" y="465" type="line"/>
      <point x="36" y="465" type="line"/>
    </contour>
  </outline>
</glyph>
<glyph name="trademark" format="2">
  <advance width="858"/>
  <unicode hex="2122"/>
  <outline>
    <contour>
      <point x="388" y="338" type="line"/>
      <point x="446" y="338" type="line"/>
      <point x="446" y="674" type="line"/>
      <point x="433" y="673" type="line"/>
      <point x="550" y="408" type="line"/>
      <point x="632" y="408" type="line"/>
      <point x="749" y="673" type="line"/>
      <point x="736" y="674" type="line"/>
      <point x="736" y="338" type="line"/>
      <point x="798" y="338" type="line"/>
      <point x="798" y="730" type="line"/>
      <point x="716" y="730" type="line"/>
      <point x="597" y="457" type="line"/>
      <point x="589" y="457" type="line"/>
      <point x="470" y="730" type="line"/>
      <point x="388" y="730" type="line"/>
    </contour>
    <contour>
      <point x="145" y="338" type="line"/>
      <point x="209" y="338" type="line"/>
      <point x="209" y="686" type="line"/>
      <point x="145" y="686" type="line"/>
    </contour>
    <contour>
      <point x="24" y="676" type="line"/>
      <point x="330" y="676" type="line"/>
      <point x="330" y="730" type="line"/>
      <point x="24" y="730" type="line"/>
    </contour>
  </outline>
</glyph>
<glyph name="lessequal" format="2">
  <advance width="590"/>
  <unicode hex="2264"/>
  <outline>
    <contour>
      <point x="76" y="36" type="line"/>
      <point x="514" y="36" type="line"/>
      <point x="514" y="112" type="line"/>
      <point x="76" y="112" type="line"/>
    </contour>
    <contour>
      <point x="514" y="186" type="line"/>
      <point x="514" y="261" type="line"/>
      <point x="76" y="378" type="line"/>
      <point x="76" y="308" type="line"/>
    </contour>
    <contour>
      <point x="76" y="354" type="line"/>
      <point x="514" y="471" type="line"/>
      <point x="514" y="548" type="line"/>
      <point x="76" y="426" type="line"/>
    </contour>
    <contour>
      <point x="116" y="325" type="line"/>
      <point x="146" y="325" type="line"/>
      <point x="146" y="407" type="line"/>
      <point x="116" y="407" type="line"/>
    </contour>
  </outline>
</glyph>
<glyph name="greaterequal" format="2">
  <advance width="590"/>
  <unicode hex="2265"/>
  <outline>
    <contour>
      <point x="76" y="36" type="line"/>
      <point x="514" y="36" type="line"/>
      <point x="514" y="112" type="line"/>
      <point x="76" y="112" type="line"/>
    </contour>
    <contour>
      <point x="76" y="186" type="line"/>
      <point x="514" y="308" type="line"/>
      <point x="514" y="380" type="line"/>
      <point x="76" y="263" type="line"/>
    </contour>
    <contour>
      <point x="514" y="356" type="line"/>
      <point x="514" y="426" type="line"/>
      <point x="76" y="548" type="line"/>
      <point x="76" y="473" type="line"/>
    </contour>
    <contour>
      <point x="444" y="327" type="line"/>
      <point x="474" y="327" type="line"/>
      <point x="474" y="409" type="line"/>
      <point x="444" y="409" type="line"/>
    </contour>
  </outline>
</glyph>
<glyph name="J.salt" format="2">
  <advance width="586"/>
  <anchor x="274" y="0" name="bottom"/>
  <anchor x="439" y="730" name="top"/>
  <outline>
    <contour>
      <point x="271" y="-20" type="curve" smooth="yes"/>
      <point x="396" y="-20"/>
      <point x="488" y="55"/>
      <point x="488" y="207" type="curve" smooth="yes"/>
      <point x="488" y="730" type="line"/>
      <point x="390" y="730" type="line"/>
      <point x="390" y="189" type="line" smooth="yes"/>
      <point x="390" y="113"/>
      <point x="343" y="70"/>
      <point x="271" y="70" type="curve" smooth="yes"/>
      <point x="199" y="70"/>
      <point x="152" y="113"/>
      <point x="152" y="189" type="curve" smooth="yes"/>
      <point x="152" y="318" type="line"/>
      <point x="54" y="318" type="line"/>
      <point x="54" y="207" type="line" smooth="yes"/>
      <point x="54" y="55"/>
      <point x="145" y="-20"/>
    </contour>
  </outline>
</glyph>
<glyph name="cent.tnum" format="2">
  <advance width="650"/>
  <outline>
    <contour>
      <point x="338" y="104" type="curve" smooth="yes"/>
      <point x="467" y="104"/>
      <point x="576" y="174"/>
      <point x="588" y="295" type="curve"/>
      <point x="496" y="295" type="line"/>
      <point x="488" y="233"/>
      <point x="424" y="186"/>
      <point x="338" y="186" type="curve" smooth="yes"/>
      <point x="224" y="186"/>
      <point x="164" y="263"/>
      <point x="164" y="369" type="curve" smooth="yes"/>
      <point x="164" y="478"/>
      <point x="227" y="552"/>
      <point x="338" y="552" type="curve" smooth="yes"/>
      <point x="422" y="552"/>
      <point x="480" y="508"/>
      <point x="490" y="446" type="curve"/>
      <point x="582" y="446" type="line"/>
      <point x="566" y="569"/>
      <point x="467" y="634"/>
      <point x="338" y="634" type="curve" smooth="yes"/>
      <point x="157" y="634"/>
      <point x="70" y="506"/>
      <point x="70" y="379" type="curve" smooth="yes"/>
      <point x="70" y="359" type="line" smooth="yes"/>
      <point x="70" y="235"/>
      <point x="154" y="104"/>
    </contour>
    <contour>
      <point x="295" y="0" type="line"/>
      <point x="381" y="0" type="line"/>
      <point x="381" y="146" type="line"/>
      <point x="295" y="146" type="line"/>
    </contour>
    <contour>
      <point x="295" y="584" type="line"/>
      <point x="381" y="584" type="line"/>
      <point x="381" y="730" type="line"/>
      <point x="295" y="730" type="line"/>
    </contour>
  </outline>
</glyph>
<glyph name="dotaccentcomb.case" format="2">
  <anchor x="65" y="730" name="_top"/>
  <anchor x="65" y="952" name="top"/>
  <outline>
    <contour>
      <point x="65" y="812" type="curve" smooth="yes"/>
      <point x="107" y="812"/>
      <point x="130" y="837"/>
      <point x="130" y="873" type="curve" smooth="yes"/>
      <point x="130" y="909"/>
      <point x="107" y="934"/>
      <point x="65" y="934" type="curve" smooth="yes"/>
      <point x="23" y="934"/>
      <point x="0" y="909"/>
      <point x="0" y="873" type="curve" smooth="yes"/>
      <point x="0" y="837"/>
      <point x="23" y="812"/>
    </contour>
  </outline>
</glyph>
<glyph name="f_f" format="2">
  <advance width="722"/>
  <outline>
    <contour>
      <point x="106" y="0" type="line"/>
      <point x="198" y="0" type="line"/>
      <point x="198" y="583" type="line" smooth="yes"/>
      <point x="198" y="631"/>
      <point x="225" y="660"/>
      <point x="275" y="660" type="curve" smooth="yes"/>
      <point x="345" y="660" type="line"/>
      <point x="345" y="740" type="line"/>
      <point x="291" y="740" type="line" smooth="yes"/>
      <point x="170" y="740"/>
      <point x="106" y="686"/>
      <point x="106" y="567" type="curve" smooth="yes"/>
    </contour>
    <contour>
      <point x="449" y="0" type="line"/>
      <point x="541" y="0" type="line"/>
      <point x="541" y="577" type="line" smooth="yes"/>
      <point x="541" y="625"/>
      <point x="568" y="654"/>
      <point x="618" y="654" type="curve" smooth="yes"/>
      <point x="700" y="654" type="line"/>
      <point x="700" y="734" type="line"/>
      <point x="634" y="734" type="line" smooth="yes"/>
      <point x="513" y="734"/>
      <point x="449" y="680"/>
      <point x="449" y="561" type="curve" smooth="yes"/>
    </contour>
    <contour>
      <point x="32" y="456" type="line"/>
      <point x="710" y="456" type="line"/>
      <point x="710" y="528" type="line"/>
      <point x="32" y="528" type="line"/>
    </contour>
  </outline>
</glyph>
<glyph name="f_f.salt" format="2">
  <advance width="724"/>
  <outline>
    <contour>
      <point x="106" y="0" type="line"/>
      <point x="198" y="0" type="line"/>
      <point x="198" y="611" type="line" smooth="yes"/>
      <point x="198" y="641"/>
      <point x="214" y="666"/>
      <point x="246" y="666" type="curve" smooth="yes"/>
      <point x="278" y="666"/>
      <point x="296" y="641"/>
      <point x="296" y="611" type="curve"/>
      <point x="372" y="611" type="line"/>
      <point x="372" y="687"/>
      <point x="329" y="740"/>
      <point x="244" y="740" type="curve" smooth="yes"/>
      <point x="159" y="740"/>
      <point x="106" y="687"/>
      <point x="106" y="611" type="curve" smooth="yes"/>
    </contour>
    <contour>
      <point x="456" y="0" type="line"/>
      <point x="548" y="0" type="line"/>
      <point x="548" y="617" type="line" smooth="yes"/>
      <point x="548" y="648"/>
      <point x="566" y="672"/>
      <point x="600" y="672" type="curve" smooth="yes"/>
      <point x="634" y="672"/>
      <point x="654" y="648"/>
      <point x="654" y="617" type="curve"/>
      <point x="730" y="617" type="line"/>
      <point x="730" y="694"/>
      <point x="686" y="746"/>
      <point x="598" y="746" type="curve" smooth="yes"/>
      <point x="510" y="746"/>
      <point x="456" y="694"/>
      <point x="456" y="617" type="curve" smooth="yes"/>
    </contour>
    <contour>
      <point x="32" y="452" type="line"/>
      <point x="708" y="452" type="line"/>
      <point x="708" y="524" type="line"/>
      <point x="32" y="524" type="line"/>
    </contour>
  </outline>
</glyph>
<glyph name="gravecomb.case" format="2">
  <anchor x="192" y="730" name="_top"/>
  <anchor x="63" y="952" name="top"/>
  <outline>
    <contour>
      <point x="148" y="788" type="line"/>
      <point x="238" y="788" type="line"/>
      <point x="114" y="952" type="line"/>
      <point x="0" y="952" type="line"/>
    </contour>
  </outline>
</glyph>
<glyph name="riel-khmer.tnum" format="2">
  <advance width="650"/>
  <outline>
    <contour>
      <point x="320" y="-6" type="curve" smooth="yes"/>
      <point x="416" y="-6" type="line"/>
      <point x="416" y="373" type="line"/>
      <point x="334" y="373" type="line"/>
      <point x="334" y="27" type="line"/>
      <point x="370" y="70" type="line"/>
      <point x="316" y="70" type="line" smooth="yes"/>
      <point x="250" y="70"/>
      <point x="202" y="95"/>
      <point x="202" y="145" type="curve" smooth="yes"/>
      <point x="202" y="195"/>
      <point x="252" y="212"/>
      <point x="342" y="212" type="curve"/>
      <point x="342" y="283" type="line"/>
      <point x="212" y="283"/>
      <point x="120" y="235"/>
      <point x="120" y="143" type="curve" smooth="yes"/>
      <point x="120" y="42"/>
      <point x="209" y="-6"/>
    </contour>
    <contour>
      <point x="182" y="353" type="line"/>
      <point x="550" y="353" type="line"/>
      <point x="550" y="419" type="line"/>
      <point x="182" y="419" type="line"/>
    </contour>
    <contour>
      <point x="334" y="399" type="line"/>
      <point x="416" y="399" type="line"/>
      <point x="416" y="435" type="line" smooth="yes"/>
      <point x="416" y="487"/>
      <point x="404" y="520"/>
      <point x="365" y="543" type="curve" smooth="yes"/>
      <point x="326" y="566"/>
      <point x="290" y="583"/>
      <point x="270" y="597" type="curve" smooth="yes"/>
      <point x="255" y="607"/>
      <point x="252" y="621"/>
      <point x="259" y="639" type="curve" smooth="yes"/>
      <point x="266" y="656"/>
      <point x="278" y="662"/>
      <point x="310" y="662" type="curve" smooth="yes"/>
      <point x="376" y="662"/>
      <point x="419" y="657"/>
      <point x="472" y="650" type="curve"/>
      <point x="472" y="728" type="line"/>
      <point x="420" y="735"/>
      <point x="363" y="738"/>
      <point x="320" y="738" type="curve" smooth="yes"/>
      <point x="247" y="738"/>
      <point x="203" y="725"/>
      <point x="181" y="678" type="curve" smooth="yes"/>
      <point x="158" y="628"/>
      <point x="161" y="577"/>
      <point x="216" y="539" type="curve" smooth="yes"/>
      <point x="238" y="524"/>
      <point x="278" y="504"/>
      <point x="301" y="489" type="curve" smooth="yes"/>
      <point x="325" y="474"/>
      <point x="334" y="456"/>
      <point x="334" y="435" type="curve" smooth="yes"/>
    </contour>
  </outline>
</glyph>
<glyph name="seven.salt" format="2">
  <advance width="549"/>
  <outline>
    <contour>
      <point x="193" y="0" type="line"/>
      <point x="285" y="0" type="line"/>
      <point x="285" y="133" type="line" smooth="yes"/>
      <point x="285" y="333"/>
      <point x="354" y="483"/>
      <point x="519" y="603" type="curve"/>
      <point x="519" y="730" type="line"/>
      <point x="20" y="730" type="line"/>
      <point x="20" y="648" type="line"/>
      <point x="423" y="648" type="line"/>
      <point x="427" y="630" type="line"/>
      <point x="279" y="523"/>
      <point x="193" y="350"/>
      <point x="193" y="133" type="curve" smooth="yes"/>
    </contour>
  </outline>
</glyph>
<glyph name="seven.tnum" format="2">
  <advance width="650"/>
  <outline>
    <contour>
      <point x="184" y="0" type="line"/>
      <point x="284" y="0" type="line"/>
      <point x="580" y="615" type="line"/>
      <point x="580" y="730" type="line"/>
      <point x="76" y="730" type="line"/>
      <point x="76" y="648" type="line"/>
      <point x="488" y="648" type="line"/>
      <point x="493" y="639" type="line"/>
    </contour>
    <contour>
      <point x="76" y="526" type="line"/>
      <point x="156" y="526" type="line"/>
      <point x="156" y="730" type="line"/>
      <point x="76" y="730" type="line"/>
    </contour>
  </outline>
</glyph>
<glyph name="tildecomb.case" format="2">
  <anchor x="170" y="730" name="_top"/>
  <anchor x="170" y="946" name="top"/>
  <outline>
    <contour>
      <point x="255" y="812" type="curve" smooth="yes"/>
      <point x="301" y="812"/>
      <point x="338" y="833"/>
      <point x="358" y="860" type="curve"/>
      <point x="340" y="922" type="line"/>
      <point x="321" y="897"/>
      <point x="289" y="882"/>
      <point x="257" y="882" type="curve" smooth="yes"/>
      <point x="197" y="882"/>
      <point x="176" y="928"/>
      <point x="103" y="928" type="curve" smooth="yes"/>
      <point x="56" y="928"/>
      <point x="19" y="907"/>
      <point x="0" y="880" type="curve"/>
      <point x="18" y="818" type="line"/>
      <point x="37" y="843"/>
      <point x="69" y="858"/>
      <point x="101" y="858" type="curve" smooth="yes"/>
      <point x="161" y="858"/>
      <point x="182" y="812"/>
    </contour>
  </outline>
</glyph>
